<svg width="188" height="95" viewBox="0 0 188 95" fill="none" xmlns="http://www.w3.org/2000/svg">
<path opacity="0.81" d="M187.428 2.37872C187.313 14.6314 184.778 26.7415 179.969 38.0176C175.16 49.2937 168.171 59.515 159.4 68.0979C150.629 76.6808 140.248 83.4572 128.851 88.0402C117.453 92.6232 105.262 94.923 92.9726 94.8084C80.6835 94.6938 68.5374 92.167 57.2278 87.3722C45.9182 82.5774 35.6665 75.6086 27.0581 66.8636C18.4497 58.1187 11.6532 47.7688 7.05659 36.405C2.45997 25.0411 0.153291 12.8859 0.268245 0.633217L54.7164 1.14102C54.6684 6.26462 55.6329 11.3475 57.5551 16.0994C59.4772 20.8513 62.3192 25.1793 65.9189 28.8361C69.5187 32.4929 73.8055 35.407 78.5348 37.412C83.264 39.417 88.3431 40.4736 93.4819 40.5215C98.6207 40.5695 103.719 39.6078 108.485 37.6913C113.251 35.7749 117.592 32.9412 121.259 29.3522C124.927 25.7632 127.85 21.489 129.861 16.7738C131.872 12.0585 132.931 6.99453 132.979 1.87093L187.428 2.37872Z" fill="#5E9FF5"/>
</svg>
