<svg width="187" height="135" viewBox="0 0 187 135" fill="none" xmlns="http://www.w3.org/2000/svg">
<path opacity="0.81" d="M10.0199 134.463C4.24366 122.495 1.09667 109.435 0.789348 96.1566C0.482022 82.8784 3.02145 69.6878 8.23779 57.4667C13.4541 45.2456 21.2272 34.2757 31.0373 25.2904C40.8474 16.3051 52.4685 9.51147 65.1234 5.36378C77.7784 1.2161 91.1757 -0.190071 104.42 1.23929C117.663 2.66864 130.448 6.90059 141.92 13.6522C153.392 20.4037 163.286 29.5194 170.94 40.3895C178.594 51.2597 183.833 63.634 186.306 76.6849L132.801 86.7618C131.767 81.3044 129.577 76.1299 126.376 71.5844C123.175 67.0389 119.038 63.2271 114.241 60.4039C109.444 57.5806 104.098 55.811 98.5596 55.2133C93.0216 54.6156 87.4193 55.2036 82.1275 56.938C76.8357 58.6724 71.9762 61.5132 67.874 65.2705C63.7718 69.0278 60.5214 73.615 58.3401 78.7254C56.1588 83.8358 55.0969 89.3516 55.2254 94.9041C55.3539 100.457 56.6699 105.918 59.0853 110.922L10.0199 134.463Z" fill="#FF4141"/>
</svg>
